<svg width="101" height="101" viewBox="0 0 101 101" fill="none" xmlns="http://www.w3.org/2000/svg">
<path d="M95.5955 50.05C95.5955 75.2024 75.2024 95.5955 50.05 95.5955C24.8976 95.5955 4.50452 75.2024 4.50452 50.05C4.50452 24.8976 24.8976 4.50452 50.05 4.50452C75.2024 4.50452 95.5955 24.8976 95.5955 50.05Z" fill="#167FFC"/>
<path d="M81.0719 29.3475L76.986 42.7245L63.5999 38.6386L68.5048 36.0269C64.3188 30.5578 57.694 27.0361 50.2593 27.0361C37.5466 27.0361 27.2454 37.3373 27.2454 50.05C27.2454 62.7627 37.5466 73.0639 50.2593 73.0639C52.0247 73.0639 53.7446 72.8728 55.4008 72.4906L58.9498 80.0345C56.1925 80.8444 53.2805 81.2721 50.2593 81.2721C33.0057 81.2721 19.0281 67.2945 19.0281 50.0409C19.0281 32.7873 33.0057 18.8097 50.2593 18.8097C60.8517 18.8097 70.1792 24.0786 75.8394 32.123L81.0719 29.3475Z" fill="#53D86A"/>
<path d="M64.4098 69.6787C65.7202 68.7323 67.5493 69.0326 68.4957 70.343C69.4421 71.6534 69.1418 73.4825 67.8314 74.4198C66.521 75.3662 64.6919 75.075 63.7455 73.7646C62.7991 72.4542 63.0994 70.6251 64.4098 69.6787ZM71.526 61.5888C72.2995 60.1692 74.074 59.6414 75.4936 60.4149C76.9132 61.1884 77.441 62.9629 76.6675 64.3825C75.894 65.8021 74.1195 66.339 72.6999 65.5655C71.2712 64.792 70.7525 63.0084 71.526 61.5888ZM74.4289 51.2239C74.5108 49.6132 75.8758 48.3665 77.4956 48.4484C79.1063 48.5303 80.353 49.8953 80.2711 51.506C80.1892 53.1167 78.8242 54.3725 77.2135 54.2906C75.5937 54.2178 74.347 52.8346 74.4289 51.2239Z" fill="#53D86A"/>
</svg>
